<?xml version="1.0" encoding="utf-8"?>
<!-- Generator: Adobe Illustrator 23.0.6, SVG Export Plug-In . SVG Version: 6.00 Build 0)  -->
<svg version="1.1" id="Capa_1" xmlns="http://www.w3.org/2000/svg" xmlns:xlink="http://www.w3.org/1999/xlink" x="0px" y="0px"
	 viewBox="0 0 221.1 73.9" style="enable-background:new 0 0 221.1 73.9;" xml:space="preserve">
<style type="text/css">
	.st0{fill:#EC1B23;}
	.st1{fill-rule:evenodd;clip-rule:evenodd;fill:#EC1B23;}
	.st2{fill-rule:evenodd;clip-rule:evenodd;fill:#FFFFFF;}
</style>
<path class="st0" d="M221.1,48c0,0.2-0.1,0.5-0.2,0.7c-0.1,0.2-0.4,0.4-0.7,0.5c-0.3,0.1-0.8,0.2-1.4,0.3c-0.6,0.1-1.4,0.1-2.3,0.1
	c-1.5,0-2.5-0.1-3.1-0.2c-0.6-0.1-1.1-0.3-1.4-0.5c-0.3-0.2-0.5-0.5-0.7-0.8l-13.2-21.4v21.4c0,0.2-0.1,0.5-0.2,0.7
	c-0.1,0.2-0.4,0.3-0.7,0.5c-0.3,0.1-0.8,0.2-1.3,0.3c-0.6,0.1-1.3,0.1-2.1,0.1c-0.9,0-1.6,0-2.1-0.1c-0.6-0.1-1-0.2-1.4-0.3
	c-0.3-0.1-0.6-0.3-0.7-0.5c-0.1-0.2-0.2-0.4-0.2-0.7V5.7c0-0.2,0.1-0.5,0.2-0.7c0.1-0.2,0.4-0.3,0.7-0.5c0.3-0.1,0.8-0.2,1.4-0.3
	c0.6-0.1,1.3-0.1,2.1-0.1c0.9,0,1.6,0,2.1,0.1c0.6,0.1,1,0.2,1.3,0.3c0.3,0.1,0.6,0.3,0.7,0.5c0.1,0.2,0.2,0.4,0.2,0.7v19.2
	l12.8-19.1c0.2-0.3,0.3-0.5,0.6-0.7c0.2-0.2,0.5-0.3,0.9-0.5c0.4-0.1,0.8-0.2,1.4-0.2c0.6,0,1.3-0.1,2.2-0.1c0.9,0,1.6,0,2.2,0.1
	c0.6,0.1,1,0.2,1.4,0.3c0.4,0.1,0.6,0.3,0.7,0.5c0.1,0.2,0.2,0.4,0.2,0.6c0,0.4-0.1,0.8-0.3,1.2c-0.2,0.4-0.6,1.1-1.1,2L207,25.1
	l13,20.3c0.5,0.9,0.8,1.6,0.9,1.9C221,47.6,221.1,47.9,221.1,48z M163.2,13L163.2,13L157,32.1h12.3L163.2,13z M183.2,46
	c0.3,0.8,0.4,1.5,0.5,2c0.1,0.5,0,0.9-0.3,1.1c-0.2,0.2-0.7,0.4-1.3,0.5c-0.6,0.1-1.5,0.1-2.6,0.1c-1.1,0-2,0-2.7-0.1
	c-0.6,0-1.1-0.1-1.5-0.2c-0.3-0.1-0.6-0.2-0.7-0.4c-0.1-0.2-0.2-0.4-0.3-0.7l-2.9-9H155l-2.8,8.8c-0.1,0.3-0.2,0.6-0.4,0.8
	c-0.1,0.2-0.4,0.4-0.7,0.5c-0.3,0.1-0.8,0.2-1.4,0.3c-0.6,0-1.4,0.1-2.3,0.1c-1,0-1.8,0-2.4-0.1c-0.6-0.1-1-0.2-1.2-0.5
	c-0.2-0.3-0.3-0.6-0.2-1.1c0.1-0.5,0.2-1.1,0.5-1.9L157.5,6c0.1-0.4,0.3-0.7,0.5-1c0.2-0.2,0.5-0.4,0.9-0.6c0.4-0.1,0.9-0.2,1.6-0.2
	c0.7,0,1.6-0.1,2.8-0.1c1.3,0,2.4,0,3.2,0.1c0.8,0,1.4,0.1,1.8,0.2c0.4,0.1,0.8,0.3,0.9,0.6c0.2,0.2,0.4,0.6,0.5,1L183.2,46z
	 M141.6,35.9c0,2.4-0.4,4.4-1.3,6.2c-0.9,1.8-2,3.3-3.5,4.5c-1.5,1.2-3.2,2.1-5.1,2.7c-2,0.6-4,0.9-6.3,0.9c-1.5,0-2.9-0.1-4.2-0.4
	c-1.3-0.2-2.4-0.6-3.4-0.9c-1-0.4-1.8-0.7-2.5-1.1c-0.7-0.4-1.1-0.7-1.4-1c-0.3-0.3-0.5-0.7-0.6-1.3c-0.1-0.6-0.2-1.4-0.2-2.5
	c0-0.7,0-1.3,0.1-1.8c0-0.5,0.1-0.9,0.2-1.2c0.1-0.3,0.2-0.5,0.4-0.6c0.2-0.1,0.4-0.2,0.6-0.2c0.3,0,0.8,0.2,1.3,0.6
	c0.6,0.4,1.3,0.8,2.2,1.3c0.9,0.5,2,0.9,3.2,1.3c1.3,0.4,2.7,0.6,4.3,0.6c1.1,0,2-0.1,2.9-0.4c0.9-0.3,1.6-0.7,2.2-1.1
	c0.6-0.5,1-1.1,1.4-1.8c0.3-0.7,0.5-1.5,0.5-2.4c0-1-0.3-1.9-0.8-2.6c-0.5-0.7-1.2-1.4-2.1-1.9c-0.9-0.6-1.8-1.1-2.9-1.6
	c-1.1-0.5-2.2-1-3.4-1.6c-1.2-0.6-2.3-1.2-3.4-1.9c-1.1-0.7-2.1-1.6-3-2.5c-0.9-1-1.6-2.1-2.1-3.5c-0.5-1.4-0.8-3-0.8-4.8
	c0-2.1,0.4-4,1.2-5.7c0.8-1.6,1.8-3,3.1-4.1c1.3-1.1,2.9-1.9,4.6-2.4c1.8-0.5,3.7-0.8,5.7-0.8c1,0,2.1,0.1,3.1,0.2
	c1,0.2,2,0.4,2.9,0.7c0.9,0.3,1.7,0.6,2.4,0.9c0.7,0.3,1.2,0.6,1.4,0.9c0.2,0.2,0.4,0.4,0.5,0.6c0.1,0.2,0.1,0.4,0.2,0.6
	c0.1,0.3,0.1,0.6,0.1,1c0,0.4,0,0.9,0,1.5c0,0.7,0,1.2,0,1.7c0,0.5-0.1,0.8-0.2,1.2c-0.1,0.3-0.2,0.5-0.3,0.7
	c-0.1,0.1-0.3,0.2-0.6,0.2c-0.3,0-0.6-0.2-1.2-0.5c-0.5-0.3-1.2-0.7-2-1.1c-0.8-0.4-1.7-0.7-2.7-1c-1-0.3-2.2-0.5-3.4-0.5
	c-1,0-1.8,0.1-2.5,0.4c-0.7,0.2-1.3,0.6-1.8,1c-0.5,0.4-0.8,0.9-1.1,1.5c-0.2,0.6-0.4,1.2-0.4,1.9c0,1,0.3,1.9,0.8,2.6
	c0.5,0.7,1.2,1.4,2.1,1.9c0.9,0.6,1.9,1.1,3,1.6c1.1,0.5,2.3,1,3.4,1.6c1.2,0.6,2.3,1.2,3.4,1.9c1.1,0.7,2.1,1.6,3,2.5
	c0.9,1,1.6,2.1,2.1,3.5C141.3,32.5,141.6,34.1,141.6,35.9z M99,26.9c0-2.4-0.2-4.5-0.5-6.5c-0.4-1.9-1-3.6-1.8-5
	c-0.9-1.4-2-2.4-3.4-3.2c-1.4-0.8-3.2-1.1-5.4-1.1c-2.2,0-4,0.4-5.5,1.3c-1.4,0.9-2.6,2-3.5,3.4c-0.9,1.4-1.5,3.1-1.9,4.9
	c-0.4,1.9-0.6,3.9-0.6,6c0,2.5,0.2,4.7,0.5,6.6c0.4,2,1,3.6,1.8,5c0.9,1.4,2,2.5,3.4,3.2c1.4,0.7,3.2,1.1,5.4,1.1
	c2.2,0,4-0.4,5.4-1.3c1.5-0.8,2.6-2,3.5-3.4c0.9-1.4,1.5-3.1,1.9-5C98.8,31.1,99,29,99,26.9z M108.3,26.4c0,3.7-0.4,7.1-1.3,10
	c-0.9,2.9-2.2,5.4-4,7.5c-1.8,2-4,3.6-6.6,4.7c-2.6,1.1-5.6,1.6-9.1,1.6c-3.4,0-6.3-0.5-8.9-1.4c-2.5-0.9-4.6-2.3-6.3-4.2
	c-1.7-1.9-3-4.3-3.8-7.2c-0.8-2.9-1.3-6.3-1.3-10.3c0-3.6,0.4-6.9,1.4-9.8c0.9-2.9,2.2-5.4,4-7.4c1.8-2,4-3.6,6.6-4.7
	c2.6-1.1,5.7-1.6,9.1-1.6c3.3,0,6.2,0.5,8.7,1.4c2.5,0.9,4.6,2.3,6.3,4.2c1.7,1.9,3,4.2,3.8,7.1C107.9,19.1,108.3,22.5,108.3,26.4z"
	/>
<path class="st1" d="M4.4,46.7c-4-12.2-7.2-17.5-0.6-36C5.1,7,5.2,6.1,8.7,4.6C21.4-1,34-1.8,46.3,3.9c2.9,1.3,3.8,1.8,5.1,4.6
	c6.1,13.3,6.1,26,0.2,38.8c-1,2.1-1.2,2.6-3.3,3.5C34.7,57.1,21,56.5,8.2,51.1C5.8,50.1,5.2,49.1,4.4,46.7z"/>
<path class="st2" d="M10.7,25.5l0.2,5.9c0.2,7.2,7.2,3,9.2,6.9c1.1,2.2-0.4,6.6,3.5,6.6l9.6,0.1c2.2,0,2.6-3.9,2.6-6.1
	c0.6-5.5,9.6,0.6,9.4-7.3l0-8.5c0-3.7-5.7-2.8-8.2-4.2c-1.9-2.4-0.9-6.7-3.1-8c-2.1-1.2-7.7-0.5-10.1-0.5c-6.6,1.2,0.5,10-10.2,10.1
	C11.6,20.6,10.7,23.4,10.7,25.5"/>
<path class="st0" d="M211.1,65.6c-1.6,0-2.8,0.5-3.5,1.3c-0.7,0.8-1.1,1.9-1.1,3.3c0,1.4,0.5,2.1,1.4,2.1c0.7,0,1.3-0.5,1.8-1.4
	c0.6-1,0.9-1.8,1-2.6C211,67.6,211.1,66.7,211.1,65.6 M212.8,64.1c-0.6,3.2-0.9,5.5-0.9,7c0,0.7,0.1,1.4,0.2,2.3l-1.6,0.2
	c0-0.6-0.1-1.3-0.1-2.1h-0.1c-0.8,1.5-1.8,2.2-3.2,2.2c-0.8,0-1.3-0.3-1.7-0.9c-0.4-0.6-0.6-1.4-0.6-2.4c0-1.6,0.5-2.9,1.6-4.1
	c1.1-1.2,2.7-1.8,4.7-1.8l0.4-0.3L212.8,64.1z M204.1,61.6c0,0.4-0.1,0.7-0.4,0.9c-0.2,0.3-0.5,0.4-0.9,0.4c-0.6,0-0.9-0.3-0.9-0.9
	c0-0.4,0.1-0.7,0.4-0.9c0.2-0.3,0.5-0.4,0.9-0.4C203.8,60.7,204.1,61,204.1,61.6z M203.4,64.4c0,0.5,0,1.1-0.2,1.9
	c-0.1,0.8-0.2,1.8-0.4,3c-0.1,0.9-0.2,2.3-0.3,4.3l-1.6,0.1c0.1-1,0.3-2.5,0.6-4.4c0.1-1.3,0.2-2.4,0.2-3.5c0-0.4,0-0.8,0-1.1
	L203.4,64.4z M200.2,64.5l-0.6,1.5c-0.4-0.1-0.9-0.2-1.3-0.2c-1.4,0-2.2,0.7-2.4,2.2c-0.2,2.1-0.4,4-0.5,5.5l-1.5,0.1
	c0.4-3.3,0.7-5.5,0.7-6.6c0-0.7,0-1.5-0.2-2.4l1.6-0.2c0,0.5,0.1,1,0.1,1.4h0.1c0.8-1,1.6-1.5,2.4-1.5
	C199,64.2,199.6,64.3,200.2,64.5z M190.5,65.6c-1.6,0-2.8,0.5-3.5,1.3c-0.7,0.8-1.1,1.9-1.1,3.3c0,1.4,0.5,2.1,1.4,2.1
	c0.7,0,1.3-0.5,1.8-1.4c0.6-1,0.9-1.8,1-2.6C190.4,67.6,190.4,66.7,190.5,65.6z M192.2,64.1c-0.6,3.2-0.9,5.5-0.9,7
	c0,0.7,0.1,1.4,0.2,2.3l-1.6,0.2c0-0.6-0.1-1.3-0.1-2.1h-0.1c-0.8,1.5-1.8,2.2-3.2,2.2c-0.8,0-1.3-0.3-1.7-0.9
	c-0.4-0.6-0.6-1.4-0.6-2.4c0-1.6,0.5-2.9,1.6-4.1c1.1-1.2,2.7-1.8,4.7-1.8l0.4-0.3L192.2,64.1z M183.5,61.6c0,0.4-0.1,0.7-0.4,0.9
	c-0.2,0.3-0.5,0.4-0.9,0.4c-0.6,0-0.9-0.3-0.9-0.9c0-0.4,0.1-0.7,0.4-0.9c0.2-0.3,0.5-0.4,0.9-0.4C183.2,60.7,183.5,61,183.5,61.6z
	 M182.8,64.4c0,0.5,0,1.1-0.2,1.9c-0.1,0.8-0.2,1.8-0.4,3c-0.1,0.9-0.2,2.3-0.3,4.3l-1.6,0.1c0.1-1,0.3-2.5,0.6-4.4
	c0.1-1.3,0.2-2.4,0.2-3.5c0-0.4,0-0.8,0-1.1L182.8,64.4z M178.9,60.2c0,0.4-0.1,1.2-0.3,2.5c-0.2,1.3-0.3,2.6-0.5,3.8
	c-0.3,2.9-0.5,5.3-0.6,7l-1.7,0.2c0-0.3,0.1-1.1,0.3-2.5c0.2-1.4,0.4-3,0.6-4.6c0.3-2.6,0.4-4.6,0.4-6.2L178.9,60.2z M174.7,61.6
	c0,0.4-0.1,0.7-0.4,0.9c-0.2,0.3-0.5,0.4-0.9,0.4c-0.6,0-0.9-0.3-0.9-0.9c0-0.4,0.1-0.7,0.4-0.9c0.2-0.3,0.5-0.4,0.9-0.4
	C174.4,60.7,174.7,61,174.7,61.6z M174,64.4c0,0.5,0,1.1-0.2,1.9c-0.1,0.8-0.2,1.8-0.4,3c-0.1,0.9-0.2,2.3-0.3,4.3l-1.6,0.1
	c0.1-1,0.3-2.5,0.6-4.4c0.1-1.3,0.2-2.4,0.2-3.5c0-0.4,0-0.8,0-1.1L174,64.4z M170.2,64.5l-0.4,1.5c-0.6-0.2-1.2-0.3-1.9-0.3
	c-0.9,0-1.7,0.4-2.3,1.1c-0.6,0.7-0.9,1.6-0.9,2.6c0,0.9,0.2,1.6,0.6,2.2c0.4,0.6,1,0.8,1.8,0.8c0.8,0,1.7-0.3,2.6-0.9l-0.2,1.4
	c-0.6,0.5-1.5,0.8-2.7,0.8c-1.2,0-2.1-0.4-2.8-1.3c-0.6-0.7-0.9-1.7-0.9-2.9c0-1.4,0.5-2.7,1.4-3.7c0.9-1,2.2-1.5,3.8-1.5
	C169.2,64.3,169.8,64.4,170.2,64.5z M162.1,61.6c0,0.4-0.1,0.7-0.4,0.9c-0.2,0.3-0.5,0.4-0.9,0.4c-0.6,0-0.9-0.3-0.9-0.9
	c0-0.4,0.1-0.7,0.4-0.9c0.2-0.3,0.5-0.4,0.9-0.4C161.9,60.7,162.1,61,162.1,61.6z M161.5,64.4c0,0.5,0,1.1-0.2,1.9
	c-0.1,0.8-0.2,1.8-0.4,3c-0.1,0.9-0.2,2.3-0.3,4.3l-1.6,0.1c0.1-1,0.3-2.5,0.6-4.4c0.1-1.3,0.2-2.4,0.2-3.5c0-0.4,0-0.8,0-1.1
	L161.5,64.4z M157,67.1c0,0.7-0.1,1.8-0.2,3.2c-0.1,1.4-0.2,2.5-0.2,3.2l-1.6,0.1c0-0.5,0.1-1.5,0.3-2.9c0.2-1.5,0.3-2.5,0.3-3.1
	c0-0.7-0.1-1.3-0.3-1.6c-0.2-0.3-0.6-0.5-1-0.5c-0.8,0-1.5,0.4-2,1.2c-0.6,0.8-0.9,1.8-1,3.1c-0.2,1.5-0.2,2.7-0.2,3.6l-1.6,0.1
	c0-0.4,0.1-1.4,0.3-2.9c0.2-1.5,0.3-2.5,0.3-3.1c0-0.7-0.1-1.3-0.3-1.6c-0.2-0.3-0.6-0.5-1-0.5c-0.8,0-1.4,0.4-2,1.3
	c-0.6,0.9-0.9,1.9-1.1,3c-0.1,1.5-0.3,2.7-0.3,3.6l-1.5,0.1c0.4-3.3,0.7-5.5,0.7-6.6c0-0.7,0-1.5-0.2-2.4l1.6-0.2
	c0,0.6,0.1,1.3,0.1,2.2h0.1c0.7-1.5,1.8-2.3,3.2-2.3c0.7,0,1.3,0.2,1.7,0.6c0.4,0.4,0.6,1,0.6,1.6h0.1c0.8-1.5,1.9-2.3,3.3-2.3
	C156.1,64.3,157,65.2,157,67.1z M140.2,68.5c0-0.9-0.2-1.6-0.6-2.3c-0.4-0.6-1-0.9-1.7-0.9c-0.9,0-1.7,0.4-2.2,1.3
	c-0.6,0.9-0.8,1.8-0.8,2.8c0,0.9,0.2,1.6,0.6,2.3c0.4,0.6,1,0.9,1.7,0.9c0.9,0,1.7-0.4,2.2-1.3C139.9,70.5,140.2,69.5,140.2,68.5z
	 M141.8,68.2c0,1.5-0.5,2.8-1.4,3.9c-0.9,1.1-2.1,1.7-3.6,1.7c-1,0-1.8-0.4-2.5-1.2c-0.7-0.8-1.1-1.8-1.1-3.1c0-1.5,0.5-2.8,1.4-3.8
	c0.9-1.1,2.1-1.6,3.6-1.6c1,0,1.8,0.4,2.5,1.1C141.4,66,141.8,67,141.8,68.2z M130.1,66.7c0-1.2-0.4-2.2-1.1-3
	c-0.7-0.8-1.9-1.2-3.4-1.2c-0.4,0-0.8,0-1.2,0.1c-0.1,0.7-0.2,2.2-0.4,4.5c-0.2,1.7-0.3,3.4-0.5,5.2c0.5,0.1,0.9,0.1,1.4,0.1
	c1.6,0,2.9-0.5,3.8-1.6C129.7,69.6,130.1,68.3,130.1,66.7z M131.7,66.5c0,2-0.6,3.6-1.9,5c-1.3,1.4-2.9,2.1-4.9,2.1
	c-0.6,0-1.6,0-3.1-0.1c0.1-0.9,0.4-3,0.8-6.4c0.2-2.2,0.4-4.2,0.4-5.8h1.1c0.2,0,0.6,0,1.1,0c0.5,0,0.9,0,1.1,0
	c1.8,0,3.2,0.5,4.1,1.6C131.3,63.8,131.7,65,131.7,66.5z M115.9,67.1c0,0.5-0.1,1.5-0.2,3c-0.1,1.5-0.2,2.7-0.2,3.4l-1.6,0.1
	c0-0.3,0.1-1.2,0.3-2.7c0.2-1.5,0.3-2.6,0.3-3.4c0-0.7-0.1-1.2-0.4-1.5c-0.3-0.3-0.7-0.4-1.3-0.4c-0.7,0-1.3,0.4-2,1.3
	c-0.6,0.9-1,1.9-1.1,3c-0.1,1.4-0.2,2.6-0.3,3.6l-1.5,0.1c0.4-3.3,0.7-5.5,0.7-6.6c0-0.7,0-1.5-0.2-2.4l1.6-0.2
	c0,0.6,0.1,1.3,0.1,2.2h0.1c0.8-1.5,1.9-2.3,3.4-2.3C115.1,64.3,115.9,65.2,115.9,67.1z M105.5,60.2c0,0.1-0.5,0.6-1.4,1.5
	c-0.9,0.9-1.4,1.4-1.4,1.5h-1.1c0-0.1,0.3-0.6,1-1.5c0.6-0.9,1-1.4,1-1.5H105.5z M104.5,68.5c0-0.9-0.2-1.6-0.6-2.3
	c-0.4-0.6-1-0.9-1.7-0.9c-0.9,0-1.7,0.4-2.2,1.3c-0.6,0.9-0.8,1.8-0.8,2.8c0,0.9,0.2,1.6,0.6,2.3c0.4,0.6,1,0.9,1.7,0.9
	c0.9,0,1.7-0.4,2.2-1.3C104.2,70.5,104.5,69.5,104.5,68.5z M106.1,68.2c0,1.5-0.5,2.8-1.4,3.9c-0.9,1.1-2.1,1.7-3.6,1.7
	c-1,0-1.8-0.4-2.5-1.2c-0.7-0.8-1.1-1.8-1.1-3.1c0-1.5,0.5-2.8,1.4-3.8c0.9-1.1,2.1-1.6,3.6-1.6c1,0,1.8,0.4,2.5,1.1
	C105.7,66,106.1,67,106.1,68.2z M96.4,61.6c0,0.4-0.1,0.7-0.4,0.9c-0.2,0.3-0.5,0.4-0.9,0.4c-0.6,0-0.9-0.3-0.9-0.9
	c0-0.4,0.1-0.7,0.4-0.9c0.2-0.3,0.5-0.4,0.9-0.4C96.1,60.7,96.4,61,96.4,61.6z M95.7,64.4c0,0.5,0,1.1-0.2,1.9
	c-0.1,0.8-0.2,1.8-0.4,3c-0.1,0.9-0.2,2.3-0.3,4.3l-1.6,0.1c0.1-1,0.3-2.5,0.6-4.4c0.1-1.3,0.2-2.4,0.2-3.5c0-0.4,0-0.8,0-1.1
	L95.7,64.4z M91.9,64.5L91.5,66c-0.6-0.2-1.2-0.3-1.9-0.3c-0.9,0-1.7,0.4-2.3,1.1c-0.6,0.7-0.9,1.6-0.9,2.6c0,0.9,0.2,1.6,0.6,2.2
	c0.4,0.6,1,0.8,1.8,0.8c0.8,0,1.7-0.3,2.6-0.9l-0.2,1.4c-0.6,0.5-1.5,0.8-2.7,0.8c-1.2,0-2.1-0.4-2.8-1.3c-0.6-0.7-0.9-1.7-0.9-2.9
	c0-1.4,0.5-2.7,1.4-3.7c0.9-1,2.2-1.5,3.8-1.5C90.9,64.3,91.5,64.4,91.9,64.5z M81.6,65.6c-1.6,0-2.8,0.5-3.5,1.3
	c-0.7,0.8-1.1,1.9-1.1,3.3c0,1.4,0.5,2.1,1.4,2.1c0.7,0,1.3-0.5,1.8-1.4c0.6-1,0.9-1.8,1-2.6C81.5,67.6,81.6,66.7,81.6,65.6z
	 M83.4,64.1c-0.6,3.2-0.9,5.5-0.9,7c0,0.7,0.1,1.4,0.2,2.3l-1.6,0.2c0-0.6-0.1-1.3-0.1-2.1h-0.1c-0.8,1.5-1.8,2.2-3.2,2.2
	c-0.8,0-1.3-0.3-1.7-0.9c-0.4-0.6-0.6-1.4-0.6-2.4c0-1.6,0.5-2.9,1.6-4.1c1.1-1.2,2.7-1.8,4.7-1.8l0.4-0.3L83.4,64.1z M73.8,67.1
	c0,0.5-0.1,1.5-0.2,3c-0.1,1.5-0.2,2.7-0.2,3.4l-1.6,0.1c0-0.3,0.1-1.2,0.3-2.7c0.2-1.5,0.3-2.6,0.3-3.4c0-0.7-0.1-1.2-0.4-1.5
	c-0.3-0.3-0.7-0.4-1.3-0.4c-0.7,0-1.3,0.4-2,1.3c-0.6,0.9-1,1.9-1.1,3c-0.1,1.4-0.2,2.6-0.3,3.6l-1.5,0.1c0.4-3.3,0.7-5.5,0.7-6.6
	c0-0.7,0-1.5-0.2-2.4l1.6-0.2c0,0.6,0.1,1.3,0.1,2.2H68c0.8-1.5,1.9-2.3,3.4-2.3C73,64.3,73.8,65.2,73.8,67.1z M65,64.5l-0.6,1.5
	c-0.4-0.1-0.9-0.2-1.3-0.2c-1.4,0-2.2,0.7-2.4,2.2c-0.2,2.1-0.4,4-0.5,5.5l-1.5,0.1c0.4-3.3,0.7-5.5,0.7-6.6c0-0.7,0-1.5-0.2-2.4
	l1.6-0.2c0,0.5,0.1,1,0.1,1.4H61c0.8-1,1.6-1.5,2.4-1.5C63.9,64.2,64.4,64.3,65,64.5z M55.8,66.4c0-0.3-0.2-0.6-0.5-0.8
	c-0.3-0.2-0.7-0.3-1.2-0.3c-0.7,0-1.3,0.2-1.9,0.7c-0.6,0.5-1,1.1-1.1,2.1c1.9,0,3.2-0.2,4-0.6C55.6,67.2,55.8,66.9,55.8,66.4z
	 M57.3,66.3c0,0.8-0.4,1.5-1.2,1.9c-1,0.6-2.7,0.9-5.1,0.9c0,1.1,0.2,2,0.6,2.5c0.4,0.5,1.1,0.8,2,0.8c0.9,0,1.9-0.3,3-1l-0.2,1.4
	c-0.8,0.6-1.9,0.9-3.1,0.9c-1.3,0-2.2-0.4-2.8-1.2c-0.6-0.8-0.9-1.7-0.9-2.9c0-1.7,0.5-3.1,1.5-4.1c1-1,2.2-1.5,3.5-1.5
	c0.8,0,1.5,0.2,2,0.6C57,65.1,57.3,65.7,57.3,66.3z M47.9,71.8L47.6,73c-0.7,0.4-1.3,0.7-2,0.7c-0.9,0-1.5-0.2-1.8-0.6
	c-0.3-0.4-0.5-1.1-0.5-2c0-0.8,0.2-2.5,0.5-5c-0.3,0-0.8,0-1.5,0.1l0.2-1.4c0.6,0,1.1,0.1,1.5,0.1c0-0.3,0.2-1.2,0.4-2.7l1.4-0.1
	c-0.1,0.6-0.3,1.6-0.4,2.8c0.6,0,1.4,0,2.5-0.1l-0.2,1.4c-1,0-1.9-0.1-2.5-0.1c-0.3,2.1-0.5,3.6-0.5,4.5c0,0.7,0.1,1.2,0.3,1.5
	c0.2,0.3,0.5,0.4,0.9,0.4C46.5,72.4,47.2,72.2,47.9,71.8z M40.4,67.1c0,0.5-0.1,1.5-0.2,3c-0.1,1.5-0.2,2.7-0.2,3.4l-1.6,0.1
	c0-0.3,0.1-1.2,0.3-2.7c0.2-1.5,0.3-2.6,0.3-3.4c0-0.7-0.1-1.2-0.4-1.5c-0.3-0.3-0.7-0.4-1.3-0.4c-0.7,0-1.3,0.4-2,1.3
	c-0.6,0.9-1,1.9-1.1,3c-0.1,1.4-0.2,2.6-0.3,3.6l-1.5,0.1c0.4-3.3,0.7-5.5,0.7-6.6c0-0.7,0-1.5-0.2-2.4l1.6-0.2
	c0,0.6,0.1,1.3,0.1,2.2h0.1c0.8-1.5,1.9-2.3,3.4-2.3C39.5,64.3,40.4,65.2,40.4,67.1z M30.6,61.2c-0.1,0.8-0.4,2.7-0.7,5.8
	c-0.2,2-0.3,3.9-0.4,5.8l0,0.7h-1.8c0.1-0.9,0.4-3.1,0.8-6.4c0.2-2.2,0.4-4.2,0.4-5.8H30.6z"/>
</svg>
