<?xml version="1.0" encoding="utf-8"?>
<!-- Generator: Adobe Illustrator 23.0.6, SVG Export Plug-In . SVG Version: 6.00 Build 0)  -->
<svg version="1.0" id="Capa_1" xmlns="http://www.w3.org/2000/svg" xmlns:xlink="http://www.w3.org/1999/xlink" x="0px" y="0px"
	 viewBox="0 0 193.8 55.8" style="enable-background:new 0 0 193.8 55.8;" xml:space="preserve">
<style type="text/css">
	.st0{fill-rule:evenodd;clip-rule:evenodd;fill:#1664A4;}
	.st1{fill-rule:evenodd;clip-rule:evenodd;fill:#C33A42;}
	.st2{fill:#178A63;}
	.st3{fill:none;}
</style>
<g>
	<path class="st0" d="M89.7,0H66.1l-3.7,6L65,9.3h24.7V0z"/>
	<path class="st1" d="M96.8,0h23.6l3.7,6l-2.6,3.2H96.7L96.8,0z"/>
	<g>
		<polygon class="st2" points="24.4,10.8 20.4,21.1 25.4,33 13.7,33 23.6,9.1 15.5,9.1 0.3,46.2 8.3,46.2 11.1,39.6 28.1,39.6 
			30.8,46.2 38.8,46.2 		"/>
		<path class="st2" d="M71.5,27.3c0.6-0.6,1.4-1,2.2-1.3s1.7-0.5,2.6-0.5c1,0,1.2,0,2,0.4c1.2-2.4,2.7-4.2,4.6-5.3
			c-2-1-3.6-1.3-5.7-1.3c-3.6,0-6.3,1.3-8.2,3.9v-3.4h-6.1c-0.2-0.9-0.4-1.8-0.8-2.6c-0.7-1.6-1.6-3-2.8-4.2
			c-1.2-1.2-2.6-2.1-4.2-2.8c-1.6-0.7-3.3-1-5.1-1H33.2v19.1l7.4,18.1V15.5H50c0.8,0,1.5,0.2,2.2,0.5c0.7,0.4,1.3,0.8,1.8,1.4
			c0.5,0.6,0.9,1.2,1.2,1.9s0.4,1.5,0.4,2.3c0,0.9-0.1,1.8-0.4,2.5c-0.3,0.8-0.7,1.4-1.2,2c-0.5,0.6-1.1,1-1.8,1.3
			c-0.7,0.3-1.4,0.5-2.2,0.5h-7.9v7.4H50c1.8,0,3.5-0.3,5.1-1c1.6-0.7,3-1.6,4.2-2.8c1-1,1.8-2.1,2.5-3.4v18.2H69V31.6
			c0-0.9,0.4-1.6,0.9-2.4C70.3,28.5,70.9,27.8,71.5,27.3z"/>
		<path class="st2" d="M126.6,37.5c0-1.1-0.9-3.1-2.4-4.3c-0.8-0.6-1.6-1.1-2.5-1.5c-1-0.4-2-0.8-3.2-1.2c-0.1,0-0.2-0.1-0.3-0.1
			c-0.1,0-0.2-0.1-0.3-0.1c-0.5-0.2-1.1-0.4-1.6-0.6c-0.6-0.2-1-0.4-1.5-0.7c-0.4-0.2-0.8-0.5-1.1-0.7c-0.3-0.3-0.4-0.6-0.4-0.9
			c0-0.4,0.1-0.8,0.3-1c0.2-0.2,0.4-0.4,0.7-0.6c0.3-0.1,0.6-0.2,0.9-0.3c0.3,0,0.6-0.1,0.8-0.1c1.3,0,2.6,0.2,3.8,0.7
			s2.2,1.1,3,1.9l0.1,0.1l3.5-5.9l-0.3-0.1c-1.5-1-3.1-1.7-4.8-2.3c-1.7-0.5-3.4-0.8-5.1-0.8c-1.4,0-2.8,0.2-4,0.6
			c-1.2,0.4-2.2,1-3.1,1.7c-0.9,0.7-1.5,1.6-2,2.7c-0.5,1-0.7,2.1-0.7,3.4v0.1c0,1.4,0.3,2.6,0.8,3.5s1.2,1.6,2.1,2.2
			c0.8,0.6,1.8,1,2.9,1.4c1.1,0.3,2.1,0.6,3.2,0.9c0.2,0,0.3,0.1,0.5,0.1c0.2,0,0.3,0.1,0.5,0.1c0.9,0.3,1.7,0.6,2.4,0.9
			c0.7,0.3,1,0.8,1,1.4c0,1.3-1,2-3.1,2c-1.5,0-3-0.3-4.3-0.9c-1.3-0.6-2.5-1.5-3.6-2.6l-0.1-0.1l-3.7,5.8l0.3,0.2
			c1.8,1.1,3.2,2.1,5.2,2.8c1.9,0.7,3.9,1,5.9,1c3.2,0,5.7-0.8,7.5-2.3S126.6,40.3,126.6,37.5L126.6,37.5z"/>
		<path class="st2" d="M105.3,33c0-1.9-0.4-3.7-1.1-5.4c-0.7-1.7-1.7-3.1-2.9-4.4c-1.2-1.2-2.7-2.2-4.4-2.9s-3.4-1.1-5.3-1.1
			c-1.9,0-3.7,0.4-5.4,1.1s-3.1,1.7-4.4,2.9c-1.2,1.2-2.2,2.7-2.9,4.4c-0.7,1.7-1.1,3.4-1.1,5.4c0,1.9,0.4,3.6,1.1,5.3
			c0.7,1.7,1.7,3.1,2.9,4.4c1.2,1.2,2.7,2.2,4.4,2.9c1.7,0.7,3.5,1.1,5.4,1.1c2.2,0,4.3-0.5,6.2-1.5c2-1,3.4-2.6,4.9-4.2l0.1-0.1
			l-6.2-2.7v-0.1c-0.9,0.9-1.5,1.6-2.3,1.8c-0.8,0.3-1.7,0.4-2.6,0.4c-1.1,0-2-0.2-2.9-0.7c-0.8-0.5-1.6-1.1-2.2-1.8
			c-0.6-0.7-1.1-1.5-1.4-2.4c-0.3-0.9-0.5-1.7-0.5-2.5c0-1.1,0.2-2,0.5-2.9c0.4-0.9,0.8-1.7,1.5-2.3c0.6-0.7,1.4-1.2,2.2-1.6
			c0.8-0.4,1.8-0.6,2.7-0.6c1.6,0,2.9,0.5,4.1,1.4c1.1,1,2,2.2,2.5,3.7H87.1c-0.8,1.7-0.6,3.9,0.4,5.4h17.4h0.1
			C105.4,35.1,105.3,34.1,105.3,33z"/>
		<polygon class="st2" points="178.6,9.1 170.6,9.1 180.4,33 168.8,33 173.7,21.1 169.7,10.8 155.3,46.2 163.3,46.2 166.1,39.6 
			183,39.6 185.8,46.2 193.8,46.2 		"/>
		<polygon class="st2" points="155.3,42.2 162.8,23.9 162.8,9.1 157.1,9.1 145.6,26.3 134.2,9.1 128.5,9.1 128.5,46.2 135.9,46.2 
			135.9,25.1 145.6,39.7 155.3,25.2 		"/>
		<polygon class="st2" points="45.3,49.8 44.5,51 45,51 46,49.8 		"/>
		<path class="st2" d="M23.6,50c-0.1,0-0.2,0-0.3,0.1c-0.1,0.1-0.1,0.2-0.1,0.3s0,0.2,0.1,0.3c0.1,0.1,0.2,0.1,0.3,0.1
			c0.1,0,0.2,0,0.3-0.1c0.1-0.1,0.1-0.2,0.1-0.3c0-0.1,0-0.2-0.1-0.3C23.8,50,23.7,50,23.6,50z"/>
		<path class="st2" d="M17.3,50c-0.1,0-0.2,0-0.3,0.1c-0.1,0.1-0.1,0.2-0.1,0.3s0,0.2,0.1,0.3c0.1,0.1,0.2,0.1,0.3,0.1
			c0.1,0,0.2,0,0.3-0.1c0.1-0.1,0.1-0.2,0.1-0.3c0-0.1,0-0.2-0.1-0.3C17.5,50,17.4,50,17.3,50z"/>
		<path class="st2" d="M41.8,50c-0.1,0-0.2,0-0.3,0.1c-0.1,0.1-0.1,0.2-0.1,0.3s0,0.2,0.1,0.3c0.1,0.1,0.2,0.1,0.3,0.1
			c0.1,0,0.2,0,0.3-0.1c0.1-0.1,0.1-0.2,0.1-0.3c0-0.1,0-0.2-0.1-0.3C42,50,41.9,50,41.8,50z"/>
		<path class="st2" d="M140.2,50c-0.1,0-0.2,0-0.3,0.1c-0.1,0.1-0.1,0.2-0.1,0.3s0,0.2,0.1,0.3c0.1,0.1,0.2,0.1,0.3,0.1
			c0.1,0,0.2,0,0.3-0.1c0.1-0.1,0.1-0.2,0.1-0.3c0-0.1,0-0.2-0.1-0.3C140.4,50,140.3,50,140.2,50z"/>
		<path class="st2" d="M134.7,50c-0.1,0-0.2,0-0.3,0.1c-0.1,0.1-0.1,0.2-0.1,0.3s0,0.2,0.1,0.3c0.1,0.1,0.2,0.1,0.3,0.1
			c0.1,0,0.2,0,0.3-0.1c0.1-0.1,0.1-0.2,0.1-0.3c0-0.1,0-0.2-0.1-0.3C134.9,50,134.8,50,134.7,50z"/>
		<path class="st2" d="M189.3,50c-0.1,0-0.2,0-0.3,0.1c-0.1,0.1-0.1,0.2-0.1,0.3s0,0.2,0.1,0.3c0.1,0.1,0.2,0.1,0.3,0.1
			c0.1,0,0.2,0,0.3-0.1c0.1-0.1,0.1-0.2,0.1-0.3c0-0.1,0-0.2-0.1-0.3C189.5,50,189.4,50,189.3,50z"/>
		<g>
			<path class="st3" d="M146.8,54.1c-0.1,0.1-0.2,0.3-0.2,0.5c0,0.2,0.1,0.3,0.2,0.5c0.1,0.1,0.3,0.2,0.5,0.2c0.3,0,0.6-0.1,0.8-0.3
				c0.2-0.2,0.3-0.5,0.3-0.8v-0.4l-0.9,0.1C147.2,53.9,146.9,54,146.8,54.1z"/>
			<path class="st3" d="M99.8,52.2c-0.3,0-0.5,0.1-0.8,0.3c-0.2,0.2-0.3,0.5-0.4,0.8h2.1c0-0.4-0.1-0.6-0.3-0.8
				C100.3,52.3,100.1,52.2,99.8,52.2z"/>
			<path class="st3" d="M166,52.2c-0.4,0-0.7,0.1-0.9,0.4c-0.2,0.3-0.3,0.6-0.3,1v0.5c0,0.3,0.1,0.6,0.3,0.8
				c0.2,0.2,0.5,0.3,0.8,0.3c0.4,0,0.7-0.1,0.9-0.4c0.2-0.3,0.3-0.7,0.3-1.2c0-0.4-0.1-0.8-0.3-1C166.6,52.3,166.3,52.2,166,52.2z"
				/>
			<path class="st3" d="M154.2,50.9L154.2,50.9c0,0.2-0.1,0.3-0.1,0.4l-0.9,2.3h1.9l-0.9-2.3C154.3,51.2,154.3,51.1,154.2,50.9z"/>
			<path class="st3" d="M88,52.2c-0.4,0-0.7,0.1-0.9,0.4c-0.2,0.3-0.3,0.7-0.3,1.2c0,0.4,0.1,0.8,0.3,1.1c0.2,0.3,0.5,0.4,0.8,0.4
				c0.4,0,0.6-0.1,0.9-0.4c0.2-0.3,0.3-0.6,0.3-1v-0.6c0-0.3-0.1-0.6-0.3-0.8C88.6,52.3,88.4,52.2,88,52.2z"/>
			<path class="st3" d="M34.4,54.1c-0.1,0.1-0.2,0.3-0.2,0.5c0,0.2,0.1,0.3,0.2,0.5c0.1,0.1,0.3,0.2,0.5,0.2c0.3,0,0.6-0.1,0.8-0.3
				c0.2-0.2,0.3-0.5,0.3-0.8v-0.4l-0.9,0.1C34.8,53.9,34.6,54,34.4,54.1z"/>
			<path class="st3" d="M92.7,52.2c-0.4,0-0.7,0.1-1,0.4c-0.2,0.3-0.4,0.7-0.4,1.1c0,0.5,0.1,0.8,0.4,1.1c0.2,0.3,0.6,0.4,0.9,0.4
				c0.4,0,0.7-0.1,0.9-0.4c0.2-0.3,0.3-0.6,0.3-1.1c0-0.5-0.1-0.9-0.3-1.1C93.4,52.4,93.1,52.2,92.7,52.2z"/>
			<path class="st3" d="M109.4,52.2c-0.4,0-0.7,0.1-0.9,0.4c-0.2,0.3-0.3,0.7-0.3,1.2c0,0.4,0.1,0.8,0.3,1.1
				c0.2,0.3,0.5,0.4,0.8,0.4c0.4,0,0.6-0.1,0.9-0.4c0.2-0.3,0.3-0.6,0.3-1v-0.6c0-0.3-0.1-0.6-0.3-0.8
				C110,52.3,109.7,52.2,109.4,52.2z"/>
			<path class="st3" d="M113.9,52.2c-0.3,0-0.5,0.1-0.8,0.3c-0.2,0.2-0.3,0.5-0.4,0.8h2.1c0-0.4-0.1-0.6-0.3-0.8
				C114.5,52.3,114.2,52.2,113.9,52.2z"/>
			<path class="st3" d="M131.4,52.2c-0.4,0-0.7,0.1-0.9,0.4c-0.2,0.3-0.3,0.7-0.3,1.2c0,0.4,0.1,0.8,0.3,1.1
				c0.2,0.3,0.5,0.4,0.8,0.4c0.4,0,0.6-0.1,0.9-0.4c0.2-0.3,0.3-0.6,0.3-1v-0.6c0-0.3-0.1-0.6-0.3-0.8
				C132,52.3,131.7,52.2,131.4,52.2z"/>
			<path class="st3" d="M2.4,50.9L2.4,50.9c0,0.2-0.1,0.3-0.1,0.4l-0.9,2.3h1.9l-0.9-2.3C2.5,51.2,2.5,51.1,2.4,50.9z"/>
			<path class="st3" d="M127.2,52.2c-0.3,0-0.5,0.1-0.8,0.3c-0.2,0.2-0.3,0.5-0.4,0.8h2.1c0-0.4-0.1-0.6-0.3-0.8
				C127.8,52.3,127.5,52.2,127.2,52.2z"/>
			<path class="st3" d="M66.9,50.8h-0.8v2.2h0.7c0.4,0,0.8-0.1,1-0.3c0.2-0.2,0.3-0.5,0.3-0.9C68.1,51.2,67.7,50.8,66.9,50.8z"/>
			<path class="st3" d="M191.4,54.1c-0.1,0.1-0.2,0.3-0.2,0.5c0,0.2,0.1,0.3,0.2,0.5c0.1,0.1,0.3,0.2,0.5,0.2c0.3,0,0.6-0.1,0.8-0.3
				c0.2-0.2,0.3-0.5,0.3-0.8v-0.4l-0.9,0.1C191.8,53.9,191.6,54,191.4,54.1z"/>
			<path class="st3" d="M60.7,52.2c-0.3,0-0.5,0.1-0.8,0.3c-0.2,0.2-0.3,0.5-0.4,0.8h2.1c0-0.4-0.1-0.6-0.3-0.8
				C61.2,52.3,61,52.2,60.7,52.2z"/>
			<path class="st3" d="M73.9,52.2c-0.3,0-0.5,0.1-0.8,0.3c-0.2,0.2-0.3,0.5-0.4,0.8h2.1c0-0.4-0.1-0.6-0.3-0.8
				C74.4,52.3,74.2,52.2,73.9,52.2z"/>
			<path class="st3" d="M183.3,52.2c-0.4,0-0.7,0.1-1,0.4c-0.2,0.3-0.4,0.7-0.4,1.1c0,0.5,0.1,0.8,0.4,1.1c0.2,0.3,0.6,0.4,0.9,0.4
				c0.4,0,0.7-0.1,0.9-0.4c0.2-0.3,0.3-0.6,0.3-1.1c0-0.5-0.1-0.9-0.3-1.1C184,52.4,183.7,52.2,183.3,52.2z"/>
			<path class="st3" d="M7.2,52.2c-0.4,0-0.7,0.1-0.9,0.4C6.1,52.9,6,53.3,6,53.8c0,0.4,0.1,0.8,0.3,1.1c0.2,0.3,0.5,0.4,0.8,0.4
				c0.4,0,0.6-0.1,0.9-0.4c0.2-0.3,0.3-0.6,0.3-1v-0.6c0-0.3-0.1-0.6-0.3-0.8C7.8,52.3,7.5,52.2,7.2,52.2z"/>
			<path class="st3" d="M83,54.1c-0.1,0.1-0.2,0.3-0.2,0.5c0,0.2,0.1,0.3,0.2,0.5c0.1,0.1,0.3,0.2,0.5,0.2c0.3,0,0.6-0.1,0.8-0.3
				c0.2-0.2,0.3-0.5,0.3-0.8v-0.4l-0.9,0.1C83.4,53.9,83.2,54,83,54.1z"/>
			<path class="st3" d="M175.6,54.1c-0.1,0.1-0.2,0.3-0.2,0.5c0,0.2,0.1,0.3,0.2,0.5c0.1,0.1,0.3,0.2,0.5,0.2c0.3,0,0.6-0.1,0.8-0.3
				c0.2-0.2,0.3-0.5,0.3-0.8v-0.4l-0.9,0.1C176,53.9,175.8,54,175.6,54.1z"/>
			<path class="st3" d="M56.1,52.2c-0.4,0-0.7,0.1-0.9,0.4c-0.2,0.3-0.3,0.7-0.3,1.2c0,0.4,0.1,0.8,0.3,1.1c0.2,0.3,0.5,0.4,0.8,0.4
				c0.3,0,0.6-0.1,0.9-0.4c0.2-0.3,0.3-0.6,0.3-1v-0.6c0-0.3-0.1-0.6-0.3-0.8C56.7,52.3,56.5,52.2,56.1,52.2z"/>
			<path class="st3" d="M45,52.2c-0.4,0-0.7,0.1-1,0.4c-0.2,0.3-0.4,0.7-0.4,1.1c0,0.5,0.1,0.8,0.4,1.1c0.2,0.3,0.6,0.4,1,0.4
				c0.4,0,0.7-0.1,0.9-0.4c0.2-0.3,0.3-0.6,0.3-1.1c0-0.5-0.1-0.9-0.3-1.1C45.8,52.4,45.4,52.2,45,52.2z"/>
			<path class="st2" d="M8.3,52.3L8.3,52.3c-0.3-0.4-0.7-0.6-1.2-0.6c-0.5,0-1,0.2-1.3,0.6c-0.3,0.4-0.5,0.9-0.5,1.6
				c0,0.6,0.1,1.1,0.4,1.4c0.3,0.4,0.7,0.5,1.2,0.5c0.6,0,1.1-0.3,1.3-0.8h0v0.7h0.6v-5.8H8.3V52.3z M8.3,53.9c0,0.4-0.1,0.7-0.3,1
				c-0.2,0.2-0.5,0.4-0.9,0.4c-0.4,0-0.6-0.1-0.8-0.4C6.1,54.6,6,54.3,6,53.8c0-0.5,0.1-0.9,0.3-1.2c0.2-0.3,0.5-0.4,0.9-0.4
				c0.3,0,0.6,0.1,0.8,0.3c0.2,0.2,0.3,0.5,0.3,0.8V53.9z"/>
			<path class="st2" d="M57.2,52.3L57.2,52.3c-0.3-0.4-0.6-0.6-1.2-0.6c-0.5,0-1,0.2-1.3,0.6c-0.3,0.4-0.5,0.9-0.5,1.6
				c0,0.6,0.1,1.1,0.4,1.4c0.3,0.4,0.7,0.5,1.2,0.5c0.6,0,1.1-0.3,1.3-0.8h0v0.7h0.6v-5.8h-0.6V52.3z M57.2,53.9
				c0,0.4-0.1,0.7-0.3,1c-0.2,0.2-0.5,0.4-0.9,0.4c-0.4,0-0.6-0.1-0.8-0.4c-0.2-0.3-0.3-0.6-0.3-1.1c0-0.5,0.1-0.9,0.3-1.2
				c0.2-0.3,0.5-0.4,0.9-0.4c0.3,0,0.6,0.1,0.8,0.3c0.2,0.2,0.3,0.5,0.3,0.8V53.9z"/>
			<path class="st2" d="M73.9,51.7c-0.5,0-0.9,0.2-1.3,0.6c-0.3,0.4-0.5,0.9-0.5,1.5c0,0.6,0.2,1.1,0.5,1.5c0.3,0.4,0.8,0.5,1.3,0.5
				c0.6,0,1-0.1,1.4-0.4v-0.6c-0.4,0.3-0.8,0.4-1.2,0.4c-0.4,0-0.7-0.1-0.9-0.4c-0.2-0.2-0.3-0.6-0.4-1h2.8v-0.3
				c0-0.6-0.1-1-0.4-1.4C74.8,51.9,74.4,51.7,73.9,51.7z M72.8,53.4c0.1-0.3,0.2-0.6,0.4-0.8c0.2-0.2,0.5-0.3,0.8-0.3
				c0.3,0,0.5,0.1,0.7,0.3c0.2,0.2,0.3,0.5,0.3,0.8H72.8z"/>
			<path class="st2" d="M14.5,51.7c-0.6,0-1,0.3-1.3,0.8c-0.1-0.2-0.2-0.4-0.4-0.6c-0.2-0.1-0.4-0.2-0.7-0.2c-0.5,0-0.9,0.2-1.2,0.7
				h0v-0.6h-0.6v3.9h0.6v-2.2c0-0.4,0.1-0.7,0.3-0.9c0.2-0.2,0.4-0.3,0.7-0.3c0.6,0,0.9,0.4,0.9,1.2v2.3h0.6v-2.2
				c0-0.3,0.1-0.6,0.3-0.9c0.2-0.2,0.4-0.4,0.7-0.4c0.3,0,0.5,0.1,0.7,0.3c0.1,0.2,0.2,0.5,0.2,0.9v2.2h0.6v-2.4
				C15.8,52.2,15.3,51.7,14.5,51.7z"/>
			<path class="st2" d="M2.1,50.2L0,55.7h0.7l0.5-1.5h2.3l0.6,1.5h0.7l-2.1-5.5H2.1z M1.5,53.6l0.9-2.3c0-0.1,0.1-0.2,0.1-0.4h0
				c0,0.2,0.1,0.3,0.1,0.4l0.9,2.3H1.5z"/>
			<path class="st2" d="M27.2,53.9c-0.1-0.1-0.2-0.2-0.4-0.2c-0.1-0.1-0.3-0.1-0.5-0.2c-0.1-0.1-0.2-0.1-0.3-0.1
				c-0.1,0-0.2-0.1-0.3-0.1c-0.1-0.1-0.1-0.1-0.2-0.2c0-0.1-0.1-0.2-0.1-0.3c0-0.1,0-0.2,0.1-0.2c0-0.1,0.1-0.1,0.2-0.2
				c0.1-0.1,0.1-0.1,0.2-0.1c0.1,0,0.2,0,0.3,0c0.4,0,0.7,0.1,1,0.3v-0.6c-0.3-0.1-0.6-0.2-0.9-0.2c-0.2,0-0.4,0-0.6,0.1
				c-0.2,0.1-0.3,0.1-0.5,0.2c-0.1,0.1-0.3,0.2-0.3,0.4c-0.1,0.1-0.1,0.3-0.1,0.5c0,0.2,0,0.3,0.1,0.4c0,0.1,0.1,0.2,0.2,0.3
				c0.1,0.1,0.2,0.2,0.3,0.2c0.1,0.1,0.3,0.1,0.5,0.2c0.1,0,0.2,0.1,0.4,0.1c0.1,0,0.2,0.1,0.3,0.1c0.1,0.1,0.1,0.1,0.2,0.2
				c0,0.1,0.1,0.2,0.1,0.3c0,0.4-0.3,0.6-0.8,0.6c-0.4,0-0.8-0.1-1.1-0.4v0.7c0.3,0.2,0.6,0.2,1,0.2c0.2,0,0.4,0,0.6-0.1
				c0.2,0,0.4-0.1,0.5-0.2c0.1-0.1,0.3-0.2,0.3-0.4c0.1-0.1,0.1-0.3,0.1-0.5c0-0.2,0-0.3-0.1-0.4C27.4,54.1,27.3,54,27.2,53.9z"/>
			<path class="st2" d="M67,50.2h-1.5v5.5h0.6v-2.1h0.7c0.6,0,1.1-0.2,1.4-0.5c0.4-0.3,0.5-0.8,0.5-1.3c0-0.5-0.2-0.9-0.5-1.2
				C68,50.4,67.5,50.2,67,50.2z M67.8,52.7c-0.2,0.2-0.6,0.3-1,0.3h-0.7v-2.2h0.8c0.9,0,1.3,0.4,1.3,1.1
				C68.1,52.3,68,52.5,67.8,52.7z"/>
			<path class="st2" d="M70.8,52c-0.2,0.2-0.3,0.4-0.4,0.6h0v-0.8h-0.6v3.9h0.6v-2c0-0.4,0.1-0.8,0.3-1c0.2-0.2,0.4-0.4,0.7-0.4
				c0.2,0,0.4,0,0.5,0.1v-0.7c-0.1,0-0.2-0.1-0.4-0.1C71.2,51.7,71,51.8,70.8,52z"/>
			<path class="st2" d="M60.7,51.7c-0.5,0-0.9,0.2-1.3,0.6c-0.3,0.4-0.5,0.9-0.5,1.5c0,0.6,0.2,1.1,0.5,1.5c0.3,0.4,0.8,0.5,1.3,0.5
				c0.6,0,1-0.1,1.4-0.4v-0.6c-0.4,0.3-0.8,0.4-1.2,0.4c-0.4,0-0.7-0.1-0.9-0.4c-0.2-0.2-0.3-0.6-0.4-1h2.8v-0.3
				c0-0.6-0.1-1-0.4-1.4C61.6,51.9,61.2,51.7,60.7,51.7z M59.5,53.4c0.1-0.3,0.2-0.6,0.4-0.8c0.2-0.2,0.5-0.3,0.8-0.3
				c0.3,0,0.5,0.1,0.7,0.3c0.2,0.2,0.3,0.5,0.3,0.8H59.5z"/>
			<path class="st2" d="M32.2,52c-0.2,0.2-0.3,0.4-0.4,0.6h0v-0.8h-0.6v3.9h0.6v-2c0-0.4,0.1-0.8,0.3-1c0.2-0.2,0.4-0.4,0.7-0.4
				c0.2,0,0.4,0,0.5,0.1v-0.7c-0.1,0-0.2-0.1-0.4-0.1C32.6,51.7,32.4,51.8,32.2,52z"/>
			<rect x="23.3" y="51.8" class="st2" width="0.6" height="3.9"/>
			<path class="st2" d="M35.3,51.7c-0.5,0-0.9,0.1-1.3,0.4v0.6c0.4-0.3,0.8-0.5,1.3-0.5c0.5,0,0.8,0.3,0.8,1l-1.2,0.2
				c-0.9,0.1-1.3,0.5-1.3,1.3c0,0.3,0.1,0.6,0.3,0.8c0.2,0.2,0.5,0.3,0.9,0.3c0.5,0,0.9-0.2,1.2-0.7h0v0.6h0.6v-2.5
				C36.7,52.2,36.2,51.7,35.3,51.7z M36,54.1c0,0.3-0.1,0.6-0.3,0.8c-0.2,0.2-0.5,0.3-0.8,0.3c-0.2,0-0.4-0.1-0.5-0.2
				c-0.1-0.1-0.2-0.3-0.2-0.5c0-0.3,0.1-0.4,0.2-0.5c0.1-0.1,0.4-0.2,0.7-0.2l0.9-0.1V54.1z"/>
			<path class="st2" d="M29.3,50.6l-0.6,0.2v1H28v0.5h0.7v2.3c0,0.8,0.3,1.1,1,1.1c0.2,0,0.4,0,0.6-0.1v-0.5
				c-0.1,0.1-0.2,0.1-0.4,0.1c-0.2,0-0.4-0.1-0.4-0.2c-0.1-0.1-0.1-0.3-0.1-0.6v-2.2h1v-0.5h-1V50.6z"/>
			<path class="st2" d="M38.1,52.3c-0.4,0.4-0.6,0.9-0.6,1.6c0,0.6,0.2,1,0.5,1.4c0.3,0.4,0.8,0.5,1.4,0.5c0.4,0,0.8-0.1,1.1-0.3
				v-0.6c-0.3,0.2-0.6,0.3-1,0.3c-0.4,0-0.7-0.1-1-0.4c-0.2-0.3-0.4-0.6-0.4-1.1c0-0.5,0.1-0.8,0.4-1.1c0.3-0.3,0.6-0.4,1-0.4
				c0.3,0,0.6,0.1,0.9,0.3v-0.6c-0.3-0.1-0.6-0.2-0.9-0.2C39,51.7,38.5,51.9,38.1,52.3z"/>
			<path class="st2" d="M20.8,51.7c-0.6,0-1,0.2-1.3,0.7h0v-0.7h-0.6v3.9h0.6v-2.2c0-0.4,0.1-0.7,0.3-0.9c0.2-0.2,0.5-0.4,0.8-0.4
				c0.6,0,0.9,0.4,0.9,1.2v2.2h0.6v-2.4c0-0.5-0.1-0.9-0.3-1.2C21.5,51.8,21.2,51.7,20.8,51.7z"/>
			<path class="st2" d="M78.5,53.9c-0.1-0.1-0.2-0.2-0.4-0.2c-0.1-0.1-0.3-0.1-0.5-0.2c-0.1-0.1-0.2-0.1-0.3-0.1
				c-0.1,0-0.2-0.1-0.3-0.1C77,53.2,77,53.1,76.9,53c0-0.1-0.1-0.2-0.1-0.3c0-0.1,0-0.2,0.1-0.2c0-0.1,0.1-0.1,0.2-0.2
				c0.1-0.1,0.2-0.1,0.2-0.1c0.1,0,0.2,0,0.3,0c0.4,0,0.7,0.1,1,0.3v-0.6c-0.3-0.1-0.6-0.2-0.9-0.2c-0.2,0-0.4,0-0.6,0.1
				c-0.2,0.1-0.3,0.1-0.5,0.2c-0.1,0.1-0.2,0.2-0.3,0.4c-0.1,0.1-0.1,0.3-0.1,0.5c0,0.2,0,0.3,0.1,0.4c0,0.1,0.1,0.2,0.2,0.3
				c0.1,0.1,0.2,0.2,0.3,0.2c0.1,0.1,0.3,0.1,0.5,0.2c0.1,0,0.2,0.1,0.3,0.1c0.1,0,0.2,0.1,0.3,0.1c0.1,0.1,0.1,0.1,0.2,0.2
				c0,0.1,0.1,0.2,0.1,0.3c0,0.4-0.3,0.6-0.8,0.6c-0.4,0-0.8-0.1-1.1-0.4v0.7c0.3,0.2,0.6,0.2,1,0.2c0.2,0,0.4,0,0.6-0.1
				c0.2,0,0.3-0.1,0.5-0.2c0.1-0.1,0.3-0.2,0.3-0.4c0.1-0.1,0.1-0.3,0.1-0.5c0-0.2,0-0.3-0.1-0.4C78.7,54.1,78.6,54,78.5,53.9z"/>
			<rect x="41.5" y="51.8" class="st2" width="0.6" height="3.9"/>
			<path class="st2" d="M49.9,51.7c-0.6,0-1,0.2-1.3,0.7h0v-0.7h-0.6v3.9h0.6v-2.2c0-0.4,0.1-0.7,0.3-0.9c0.2-0.2,0.5-0.4,0.8-0.4
				c0.6,0,0.9,0.4,0.9,1.2v2.2h0.6v-2.4c0-0.5-0.1-0.9-0.3-1.2C50.6,51.8,50.3,51.7,49.9,51.7z"/>
			<rect x="16.9" y="51.8" class="st2" width="0.6" height="3.9"/>
			<path class="st2" d="M45.1,51.7c-0.6,0-1.1,0.2-1.5,0.6c-0.4,0.4-0.5,0.9-0.5,1.5c0,0.6,0.2,1.1,0.5,1.5c0.3,0.4,0.8,0.6,1.4,0.6
				c0.6,0,1.1-0.2,1.4-0.6c0.4-0.4,0.5-0.9,0.5-1.5c0-0.6-0.2-1.1-0.5-1.5C46.1,51.9,45.7,51.7,45.1,51.7z M46,54.9
				c-0.2,0.3-0.5,0.4-0.9,0.4c-0.4,0-0.7-0.1-1-0.4c-0.2-0.3-0.4-0.6-0.4-1.1c0-0.5,0.1-0.9,0.4-1.1c0.2-0.3,0.6-0.4,1-0.4
				c0.4,0,0.7,0.1,0.9,0.4c0.2,0.3,0.3,0.6,0.3,1.1C46.3,54.2,46.2,54.6,46,54.9z"/>
			<rect x="139.9" y="51.8" class="st2" width="0.6" height="3.9"/>
			<path class="st2" d="M143.7,51.7c-0.6,0-1,0.2-1.3,0.7h0v-0.7h-0.6v3.9h0.6v-2.2c0-0.4,0.1-0.7,0.3-0.9c0.2-0.2,0.5-0.4,0.8-0.4
				c0.6,0,0.9,0.4,0.9,1.2v2.2h0.6v-2.4c0-0.5-0.1-0.9-0.3-1.2C144.5,51.8,144.1,51.7,143.7,51.7z"/>
			<path class="st2" d="M80.6,50.6L80,50.8v1h-0.7v0.5H80v2.3c0,0.8,0.3,1.1,1,1.1c0.2,0,0.4,0,0.6-0.1v-0.5
				c-0.1,0.1-0.2,0.1-0.4,0.1c-0.2,0-0.4-0.1-0.4-0.2c-0.1-0.1-0.1-0.3-0.1-0.6v-2.2h1v-0.5h-1V50.6z"/>
			<path class="st2" d="M136.6,52.3c-0.4,0.4-0.6,0.9-0.6,1.6c0,0.6,0.2,1,0.5,1.4c0.3,0.4,0.8,0.5,1.4,0.5c0.4,0,0.8-0.1,1.1-0.3
				v-0.6c-0.3,0.2-0.6,0.3-1,0.3c-0.4,0-0.7-0.1-1-0.4c-0.2-0.3-0.4-0.6-0.4-1.1c0-0.5,0.1-0.8,0.4-1.1c0.3-0.3,0.6-0.4,1-0.4
				c0.3,0,0.6,0.1,0.9,0.3v-0.6c-0.3-0.1-0.6-0.2-0.9-0.2C137.4,51.7,136.9,51.9,136.6,52.3z"/>
			<path class="st2" d="M166.1,51.7c-0.6,0-1,0.3-1.4,0.8h0v-2.6h-0.6v5.8h0.6v-0.6h0c0.3,0.4,0.7,0.7,1.2,0.7c0.6,0,1-0.2,1.3-0.6
				c0.3-0.4,0.5-0.9,0.5-1.6c0-0.6-0.1-1.1-0.4-1.4C167,51.9,166.6,51.7,166.1,51.7z M166.8,54.8c-0.2,0.3-0.5,0.4-0.9,0.4
				c-0.3,0-0.6-0.1-0.8-0.3c-0.2-0.2-0.3-0.5-0.3-0.8v-0.5c0-0.4,0.1-0.7,0.3-1c0.2-0.3,0.5-0.4,0.9-0.4c0.3,0,0.6,0.1,0.8,0.4
				c0.2,0.2,0.3,0.6,0.3,1C167.1,54.1,167,54.5,166.8,54.8z"/>
			<rect x="173.2" y="49.9" class="st2" width="0.6" height="5.8"/>
			<path class="st2" d="M153.9,50.2l-2.1,5.5h0.7l0.5-1.5h2.3l0.6,1.5h0.7l-2.1-5.5H153.9z M153.3,53.6l0.9-2.3
				c0-0.1,0.1-0.2,0.1-0.4h0c0,0.2,0.1,0.3,0.1,0.4l0.9,2.3H153.3z"/>
			<path class="st2" d="M171.3,54c0,0.4-0.1,0.7-0.3,0.9c-0.2,0.2-0.4,0.3-0.8,0.3c-0.6,0-0.9-0.4-0.9-1.2v-2.2h-0.6v2.3
				c0,1.1,0.5,1.7,1.4,1.7c0.5,0,0.9-0.2,1.2-0.7h0v0.6h0.6v-3.9h-0.6V54z"/>
			<path class="st2" d="M161.7,51.7c-0.6,0-1,0.3-1.3,0.8c-0.1-0.2-0.2-0.4-0.4-0.6c-0.2-0.1-0.4-0.2-0.7-0.2
				c-0.5,0-0.9,0.2-1.2,0.7h0v-0.6h-0.6v3.9h0.6v-2.2c0-0.4,0.1-0.7,0.3-0.9c0.2-0.2,0.4-0.3,0.7-0.3c0.6,0,0.9,0.4,0.9,1.2v2.3h0.6
				v-2.2c0-0.3,0.1-0.6,0.3-0.9c0.2-0.2,0.4-0.4,0.7-0.4c0.3,0,0.5,0.1,0.7,0.3c0.1,0.2,0.2,0.5,0.2,0.9v2.2h0.6v-2.4
				C163,52.2,162.5,51.7,161.7,51.7z"/>
			<rect x="134.4" y="51.8" class="st2" width="0.6" height="3.9"/>
			<path class="st2" d="M147.6,51.7c-0.5,0-0.9,0.1-1.3,0.4v0.6c0.4-0.3,0.8-0.5,1.3-0.5c0.5,0,0.8,0.3,0.8,1l-1.2,0.2
				c-0.9,0.1-1.3,0.5-1.3,1.3c0,0.3,0.1,0.6,0.3,0.8c0.2,0.2,0.5,0.3,0.9,0.3c0.5,0,0.9-0.2,1.2-0.7h0v0.6h0.6v-2.5
				C149,52.2,148.6,51.7,147.6,51.7z M148.4,54.1c0,0.3-0.1,0.6-0.3,0.8c-0.2,0.2-0.5,0.3-0.8,0.3c-0.2,0-0.4-0.1-0.5-0.2
				c-0.1-0.1-0.2-0.3-0.2-0.5c0-0.3,0.1-0.4,0.2-0.5c0.1-0.1,0.4-0.2,0.7-0.2l0.9-0.1V54.1z"/>
			<path class="st2" d="M96.7,52c-0.2,0.2-0.3,0.4-0.4,0.6h0v-0.8h-0.6v3.9h0.6v-2c0-0.4,0.1-0.8,0.3-1c0.2-0.2,0.4-0.4,0.7-0.4
				c0.2,0,0.4,0,0.5,0.1v-0.7c-0.1,0-0.2-0.1-0.4-0.1C97.1,51.7,96.9,51.8,96.7,52z"/>
			<path class="st2" d="M92.8,51.7c-0.6,0-1.1,0.2-1.5,0.6c-0.4,0.4-0.5,0.9-0.5,1.5c0,0.6,0.2,1.1,0.5,1.5c0.3,0.4,0.8,0.6,1.4,0.6
				c0.6,0,1.1-0.2,1.4-0.6c0.4-0.4,0.5-0.9,0.5-1.5c0-0.6-0.2-1.1-0.5-1.5C93.8,51.9,93.3,51.7,92.8,51.7z M93.7,54.9
				c-0.2,0.3-0.5,0.4-0.9,0.4c-0.4,0-0.7-0.1-0.9-0.4c-0.2-0.3-0.4-0.6-0.4-1.1c0-0.5,0.1-0.9,0.4-1.1c0.2-0.3,0.6-0.4,1-0.4
				c0.4,0,0.7,0.1,0.9,0.4c0.2,0.3,0.3,0.6,0.3,1.1C94,54.2,93.9,54.6,93.7,54.9z"/>
			<path class="st2" d="M83.9,51.7c-0.5,0-0.9,0.1-1.3,0.4v0.6c0.4-0.3,0.8-0.5,1.3-0.5c0.5,0,0.8,0.3,0.8,1l-1.2,0.2
				c-0.9,0.1-1.3,0.5-1.3,1.3c0,0.3,0.1,0.6,0.3,0.8c0.2,0.2,0.5,0.3,0.9,0.3c0.5,0,0.9-0.2,1.2-0.7h0v0.6h0.6v-2.5
				C85.2,52.2,84.8,51.7,83.9,51.7z M84.6,54.1c0,0.3-0.1,0.6-0.3,0.8c-0.2,0.2-0.5,0.3-0.8,0.3c-0.2,0-0.4-0.1-0.5-0.2
				c-0.1-0.1-0.2-0.3-0.2-0.5c0-0.3,0.1-0.4,0.2-0.5c0.1-0.1,0.4-0.2,0.7-0.2l0.9-0.1V54.1z"/>
			<path class="st2" d="M89.1,52.3L89.1,52.3c-0.3-0.4-0.6-0.6-1.2-0.6c-0.5,0-1,0.2-1.3,0.6c-0.3,0.4-0.5,0.9-0.5,1.6
				c0,0.6,0.1,1.1,0.4,1.4c0.3,0.4,0.7,0.5,1.2,0.5c0.6,0,1.1-0.3,1.3-0.8h0v0.7h0.6v-5.8h-0.6V52.3z M89.1,53.9
				c0,0.4-0.1,0.7-0.3,1c-0.2,0.2-0.5,0.4-0.9,0.4c-0.4,0-0.6-0.1-0.8-0.4c-0.2-0.3-0.3-0.6-0.3-1.1c0-0.5,0.1-0.9,0.3-1.2
				c0.2-0.3,0.5-0.4,0.9-0.4c0.3,0,0.6,0.1,0.8,0.3c0.2,0.2,0.3,0.5,0.3,0.8V53.9z"/>
			<path class="st2" d="M99.8,51.7c-0.5,0-0.9,0.2-1.3,0.6c-0.3,0.4-0.5,0.9-0.5,1.5c0,0.6,0.2,1.1,0.5,1.5c0.3,0.4,0.8,0.5,1.3,0.5
				c0.6,0,1-0.1,1.4-0.4v-0.6c-0.4,0.3-0.8,0.4-1.2,0.4c-0.4,0-0.7-0.1-0.9-0.4c-0.2-0.2-0.3-0.6-0.4-1h2.8v-0.3
				c0-0.6-0.1-1-0.4-1.4C100.7,51.9,100.3,51.7,99.8,51.7z M98.6,53.4c0.1-0.3,0.2-0.6,0.4-0.8c0.2-0.2,0.5-0.3,0.8-0.3
				c0.3,0,0.5,0.1,0.7,0.3c0.2,0.2,0.3,0.5,0.3,0.8H98.6z"/>
			<path class="st2" d="M132.5,52.3L132.5,52.3c-0.3-0.4-0.7-0.6-1.2-0.6c-0.5,0-1,0.2-1.3,0.6c-0.3,0.4-0.5,0.9-0.5,1.6
				c0,0.6,0.1,1.1,0.4,1.4c0.3,0.4,0.7,0.5,1.2,0.5c0.6,0,1.1-0.3,1.3-0.8h0v0.7h0.6v-5.8h-0.6V52.3z M132.5,53.9
				c0,0.4-0.1,0.7-0.3,1c-0.2,0.2-0.5,0.4-0.9,0.4c-0.4,0-0.6-0.1-0.8-0.4c-0.2-0.3-0.3-0.6-0.3-1.1c0-0.5,0.1-0.9,0.3-1.2
				c0.2-0.3,0.5-0.4,0.9-0.4c0.3,0,0.6,0.1,0.8,0.3c0.2,0.2,0.3,0.5,0.3,0.8V53.9z"/>
			<path class="st2" d="M121.8,54c-0.1,0.1-0.2,0.4-0.3,0.7h0c0-0.1-0.1-0.4-0.2-0.7l-1.7-3.8h-0.8v5.5h0.6V52c0-0.5,0-0.9,0-1.1h0
				c0.1,0.3,0.1,0.4,0.2,0.6l1.9,4.2h0.3l1.9-4.2c0-0.1,0.1-0.3,0.2-0.5h0c0,0.4-0.1,0.8-0.1,1.1v3.7h0.6v-5.5h-0.8L121.8,54z"/>
			<path class="st2" d="M104.4,53.9c-0.1-0.1-0.2-0.2-0.4-0.2c-0.1-0.1-0.3-0.1-0.5-0.2c-0.1-0.1-0.2-0.1-0.3-0.1
				c-0.1,0-0.2-0.1-0.3-0.1c-0.1-0.1-0.1-0.1-0.2-0.2c0-0.1-0.1-0.2-0.1-0.3c0-0.1,0-0.2,0.1-0.2c0-0.1,0.1-0.1,0.2-0.2
				c0.1-0.1,0.2-0.1,0.2-0.1c0.1,0,0.2,0,0.3,0c0.4,0,0.7,0.1,1,0.3v-0.6c-0.3-0.1-0.6-0.2-0.9-0.2c-0.2,0-0.4,0-0.6,0.1
				c-0.2,0.1-0.3,0.1-0.5,0.2c-0.1,0.1-0.3,0.2-0.3,0.4c-0.1,0.1-0.1,0.3-0.1,0.5c0,0.2,0,0.3,0.1,0.4c0,0.1,0.1,0.2,0.2,0.3
				c0.1,0.1,0.2,0.2,0.3,0.2c0.1,0.1,0.3,0.1,0.5,0.2c0.1,0,0.2,0.1,0.3,0.1c0.1,0,0.2,0.1,0.3,0.1c0.1,0.1,0.1,0.1,0.2,0.2
				c0,0.1,0.1,0.2,0.1,0.3c0,0.4-0.3,0.6-0.8,0.6c-0.4,0-0.8-0.1-1.1-0.4v0.7c0.3,0.2,0.6,0.2,1,0.2c0.2,0,0.4,0,0.6-0.1
				c0.2,0,0.3-0.1,0.5-0.2c0.1-0.1,0.3-0.2,0.3-0.4c0.1-0.1,0.1-0.3,0.1-0.5c0-0.2,0-0.3-0.1-0.4C104.6,54.1,104.5,54,104.4,53.9z"
				/>
			<path class="st2" d="M127.2,51.7c-0.5,0-0.9,0.2-1.3,0.6c-0.3,0.4-0.5,0.9-0.5,1.5c0,0.6,0.2,1.1,0.5,1.5
				c0.3,0.4,0.8,0.5,1.3,0.5c0.6,0,1-0.1,1.4-0.4v-0.6c-0.4,0.3-0.8,0.4-1.2,0.4c-0.4,0-0.7-0.1-0.9-0.4c-0.2-0.2-0.3-0.6-0.4-1h2.8
				v-0.3c0-0.6-0.1-1-0.4-1.4C128.1,51.9,127.7,51.7,127.2,51.7z M126.1,53.4c0-0.3,0.2-0.6,0.4-0.8c0.2-0.2,0.5-0.3,0.8-0.3
				c0.3,0,0.5,0.1,0.7,0.3c0.2,0.2,0.3,0.5,0.3,0.8H126.1z"/>
			<path class="st2" d="M110.5,52.3L110.5,52.3c-0.3-0.4-0.7-0.6-1.2-0.6s-1,0.2-1.3,0.6c-0.3,0.4-0.5,0.9-0.5,1.6
				c0,0.6,0.1,1.1,0.4,1.4c0.3,0.4,0.7,0.5,1.2,0.5c0.6,0,1.1-0.3,1.3-0.8h0v0.7h0.6v-5.8h-0.6V52.3z M110.5,53.9
				c0,0.4-0.1,0.7-0.3,1c-0.2,0.2-0.5,0.4-0.9,0.4c-0.4,0-0.6-0.1-0.8-0.4c-0.2-0.3-0.3-0.6-0.3-1.1c0-0.5,0.1-0.9,0.3-1.2
				c0.2-0.3,0.5-0.4,0.9-0.4c0.3,0,0.6,0.1,0.8,0.3c0.2,0.2,0.3,0.5,0.3,0.8V53.9z"/>
			<path class="st2" d="M114,51.7c-0.5,0-0.9,0.2-1.3,0.6c-0.3,0.4-0.5,0.9-0.5,1.5c0,0.6,0.2,1.1,0.5,1.5c0.3,0.4,0.8,0.5,1.3,0.5
				c0.6,0,1-0.1,1.4-0.4v-0.6c-0.4,0.3-0.8,0.4-1.2,0.4c-0.4,0-0.7-0.1-0.9-0.4c-0.2-0.2-0.3-0.6-0.4-1h2.8v-0.3
				c0-0.6-0.1-1-0.4-1.4C114.9,51.9,114.5,51.7,114,51.7z M112.8,53.4c0-0.3,0.2-0.6,0.4-0.8c0.2-0.2,0.5-0.3,0.8-0.3
				c0.3,0,0.5,0.1,0.7,0.3c0.2,0.2,0.3,0.5,0.3,0.8H112.8z"/>
			<path class="st2" d="M176.5,51.7c-0.5,0-0.9,0.1-1.3,0.4v0.6c0.4-0.3,0.8-0.5,1.3-0.5c0.5,0,0.8,0.3,0.8,1l-1.2,0.2
				c-0.9,0.1-1.3,0.5-1.3,1.3c0,0.3,0.1,0.6,0.3,0.8c0.2,0.2,0.5,0.3,0.9,0.3c0.5,0,0.9-0.2,1.2-0.7h0v0.6h0.6v-2.5
				C177.9,52.2,177.4,51.7,176.5,51.7z M177.2,54.1c0,0.3-0.1,0.6-0.3,0.8c-0.2,0.2-0.5,0.3-0.8,0.3c-0.2,0-0.4-0.1-0.5-0.2
				c-0.1-0.1-0.2-0.3-0.2-0.5c0-0.3,0.1-0.4,0.2-0.5c0.1-0.1,0.4-0.2,0.7-0.2l0.9-0.1V54.1z"/>
			<rect x="189" y="51.8" class="st2" width="0.6" height="3.9"/>
			<path class="st2" d="M192.3,51.7c-0.5,0-0.9,0.1-1.3,0.4v0.6c0.4-0.3,0.8-0.5,1.3-0.5c0.5,0,0.8,0.3,0.8,1l-1.2,0.2
				c-0.9,0.1-1.3,0.5-1.3,1.3c0,0.3,0.1,0.6,0.3,0.8c0.2,0.2,0.5,0.3,0.9,0.3c0.5,0,0.9-0.2,1.2-0.7h0v0.6h0.6v-2.5
				C193.7,52.2,193.2,51.7,192.3,51.7z M193,54.1c0,0.3-0.1,0.6-0.3,0.8c-0.2,0.2-0.5,0.3-0.8,0.3c-0.2,0-0.4-0.1-0.5-0.2
				c-0.1-0.1-0.2-0.3-0.2-0.5c0-0.3,0.1-0.4,0.2-0.5c0.1-0.1,0.4-0.2,0.7-0.2l0.9-0.1V54.1z"/>
			<path class="st2" d="M179.9,50.6l-0.6,0.2v1h-0.7v0.5h0.7v2.3c0,0.8,0.3,1.1,1,1.1c0.2,0,0.4,0,0.6-0.1v-0.5
				c-0.1,0.1-0.2,0.1-0.4,0.1c-0.2,0-0.4-0.1-0.4-0.2c-0.1-0.1-0.1-0.3-0.1-0.6v-2.2h1v-0.5h-1V50.6z"/>
			<path class="st2" d="M183.4,51.7c-0.6,0-1.1,0.2-1.5,0.6c-0.4,0.4-0.5,0.9-0.5,1.5c0,0.6,0.2,1.1,0.5,1.5
				c0.3,0.4,0.8,0.6,1.4,0.6c0.6,0,1.1-0.2,1.4-0.6c0.4-0.4,0.5-0.9,0.5-1.5c0-0.6-0.2-1.1-0.5-1.5C184.4,51.9,184,51.7,183.4,51.7z
				 M184.3,54.9c-0.2,0.3-0.5,0.4-0.9,0.4c-0.4,0-0.7-0.1-0.9-0.4c-0.2-0.3-0.4-0.6-0.4-1.1c0-0.5,0.1-0.9,0.4-1.1
				c0.2-0.3,0.5-0.4,1-0.4c0.4,0,0.7,0.1,0.9,0.4c0.2,0.3,0.3,0.6,0.3,1.1C184.6,54.2,184.5,54.6,184.3,54.9z"/>
			<path class="st2" d="M187.3,52c-0.2,0.2-0.3,0.4-0.4,0.6h0v-0.8h-0.6v3.9h0.6v-2c0-0.4,0.1-0.8,0.3-1c0.2-0.2,0.4-0.4,0.7-0.4
				c0.2,0,0.4,0,0.5,0.1v-0.7c-0.1,0-0.2-0.1-0.4-0.1C187.7,51.7,187.5,51.8,187.3,52z"/>
		</g>
	</g>
</g>
</svg>
