<svg width="193" height="29" viewBox="0 0 193 29" fill="none" xmlns="http://www.w3.org/2000/svg">
<path d="M24.0798 28.0278H3.94808C1.76774 28.0278 0 26.2601 0 24.0798V3.94808C0 1.76774 1.76774 0 3.94808 0H24.0798C26.2601 0 28.0278 1.76774 28.0278 3.94808V24.0798C28.0278 26.2601 26.2601 28.0278 24.0798 28.0278Z" fill="#32B9CC"/>
<path d="M22.0265 4.58135C21.0225 3.67165 19.7272 3.22294 18.4714 3.34599C17.697 3.4231 16.8677 3.72497 16.0072 4.24503C15.5487 4.52147 15.4018 5.11783 15.6783 5.57637C15.9547 6.03492 16.5511 6.18175 17.0096 5.90531C17.6215 5.53536 18.1777 5.32372 18.6625 5.27614C19.3745 5.2056 20.1259 5.4763 20.7239 6.01933C21.3408 6.57795 21.6951 7.34329 21.6951 8.11764C21.6951 9.98956 19.6895 11.8016 18.0071 12.9927C16.6249 13.9713 15.264 15.2403 14.4691 16.0212C13.6743 15.2403 12.3134 13.9713 10.9312 12.9927C7.88299 10.8353 7.24316 9.15122 7.24316 8.11764C7.24316 7.34329 7.59671 6.57795 8.2144 6.01933C8.81321 5.47712 9.56378 5.20642 10.2758 5.27614C10.4284 5.29091 10.8992 5.39016 11.9631 5.9775C12.4324 6.23671 13.0221 6.06609 13.2805 5.5977C13.5397 5.12849 13.3691 4.5387 12.9007 4.28031C11.8729 3.71266 11.0764 3.40669 10.4669 3.34681C9.21269 3.22212 7.91581 3.67329 6.91259 4.58217C5.8905 5.50829 5.30481 6.79697 5.30481 8.11846C5.30481 10.2865 6.82153 12.4595 9.81233 14.5766C11.7228 15.9285 13.6792 17.9751 13.7637 18.0645C13.7735 18.0744 13.7826 18.0842 13.7932 18.0941C14.6939 18.9742 15.1902 19.9545 15.1902 20.8527C15.1902 21.4901 14.9408 22.07 14.47 22.531C13.867 23.1208 13.0853 23.3358 12.2543 23.1979C12.4931 22.7132 12.6276 22.1685 12.6276 21.5934C12.6276 19.5821 10.9911 17.9456 8.97973 17.9456C6.96837 17.9456 5.33188 19.5821 5.33188 21.5934C5.33188 23.6048 6.96837 25.2413 8.97973 25.2413C9.62776 25.2413 10.2356 25.0707 10.7639 24.7737C11.425 25.0461 12.0952 25.1855 12.7465 25.1855C13.8818 25.1855 14.958 24.768 15.8267 23.919C16.6675 23.097 17.1302 22.0085 17.1302 20.8544C17.1302 19.7002 16.6757 18.5083 15.8079 17.4305C16.5527 16.6987 17.8512 15.4823 19.1301 14.5775C22.1209 12.4611 23.6376 10.2881 23.6376 8.11928C23.6376 6.79779 23.0511 5.50911 22.0298 4.58299M7.26941 21.591C7.26941 20.6485 8.03557 19.8823 8.97727 19.8823C9.91897 19.8823 10.6859 20.6485 10.6859 21.591C10.6859 21.8822 10.6121 22.1562 10.4833 22.3957C10.1954 22.933 9.62858 23.2997 8.97727 23.2997C8.80665 23.2997 8.64177 23.2734 8.48673 23.2267C7.78374 23.015 7.26941 22.3621 7.26941 21.591Z" fill="white"/>
<path d="M163.723 21.1586C162.31 21.1586 161.099 20.9444 160.089 20.5182C159.078 20.0899 158.198 19.4885 157.445 18.7118L160.147 15.9318C160.653 16.4121 161.17 16.7777 161.703 17.0308C162.233 17.2839 162.784 17.4094 163.355 17.4094C163.862 17.4094 164.247 17.3099 164.511 17.1087C164.777 16.9075 164.909 16.6457 164.909 16.3212V16.2823C164.909 15.9448 164.764 15.6787 164.472 15.4861C164.18 15.2914 163.73 15.1941 163.122 15.1941H161.198L160.597 13.1734L163.589 10.8023H158.537V7.26514H168.998V10.3934L165.947 12.6867C166.975 12.9593 167.795 13.4028 168.407 14.0172C169.019 14.6316 169.324 15.4775 169.324 16.5527V16.5916C169.324 17.3294 169.175 17.9806 168.874 18.5452C168.576 19.1099 168.169 19.5858 167.654 19.9731C167.139 20.3625 166.544 20.6567 165.867 20.8579C165.19 21.0591 164.476 21.1586 163.725 21.1586H163.723Z" fill="#2D418E"/>
<path d="M176.31 11.7521C179.527 11.791 181.208 13.8225 181.208 16.2801C181.208 19.0882 178.856 21.1197 175.756 21.1197C172.656 21.1197 170.324 19.138 170.324 16.4078C170.324 15.0859 170.849 13.7835 171.743 12.4617L175.23 7.26299H179.525L176.308 11.7521H176.31ZM174.105 16.3191C174.105 17.271 174.785 17.9524 175.758 17.9524C176.732 17.9524 177.439 17.2731 177.439 16.3191C177.439 15.365 176.74 14.7051 175.758 14.7051C174.776 14.7051 174.105 15.3953 174.105 16.3191Z" fill="#2D418E"/>
<path d="M191.595 10.5384H186.231L186.182 12.1999H187.328C190.457 12.1999 192.265 13.7554 192.265 16.2996C192.265 19.205 190.078 21.1197 186.93 21.1197C184.801 21.1197 183.014 20.3235 181.946 19.3522L183.579 16.6414C184.183 17.1563 185.561 17.8854 186.913 17.8854C187.973 17.8854 188.555 17.4289 188.555 16.5354C188.555 15.8063 188.001 15.3022 186.456 15.3022H183.008L183.192 7.26514H191.597V10.5406L191.595 10.5384Z" fill="#2D418E"/>
<path d="M51.8052 14.0777C51.8052 18.2531 48.6293 21.3165 44.3176 21.3165C40.0059 21.3165 36.8279 18.2531 36.8279 14.0777C36.8279 9.90234 40.0038 6.83894 44.3176 6.83894C48.6315 6.83894 51.8052 9.90451 51.8052 14.0777ZM41.8751 14.0777C41.8751 15.6181 42.9006 16.7258 44.3155 16.7258C45.7303 16.7258 46.7558 15.6159 46.7558 14.0777C46.7558 12.5395 45.7303 11.4297 44.3155 11.4297C42.9006 11.4297 41.8751 12.5395 41.8751 14.0777Z" fill="#2D418E"/>
<path d="M66.2871 12.0117V20.9574H61.3502V13.565C61.3502 12.1912 60.699 11.4557 59.6173 11.4557C58.6329 11.4557 57.8974 12.1069 57.8974 13.591V20.9553H52.9604V7.21322H57.6616V8.62809C58.4382 7.43605 59.6584 6.83894 61.3783 6.83894C64.221 6.83894 66.2871 8.84876 66.2871 12.0117Z" fill="#2D418E"/>
<path d="M84.8514 13.9653C84.8514 18.1818 81.9741 20.9574 77.5975 20.9574H71.4231V6.97092H77.5975C81.9741 6.97092 84.8514 9.74875 84.8514 13.9653ZM75.2199 10.4583V17.4721H77.498C79.7955 17.4721 80.9054 15.9837 80.9054 13.9653C80.9054 11.9468 79.7955 10.4583 77.498 10.4583H75.2199Z" fill="#32B9CC"/>
<path d="M100.171 13.9653C100.171 18.1406 97.1028 21.217 92.7781 21.217C88.4535 21.217 85.3857 18.1406 85.3857 13.9653C85.3857 9.78985 88.4535 6.7113 92.7781 6.7113C97.1028 6.7113 100.171 9.78769 100.171 13.9653ZM89.3318 13.9653C89.3318 16.1027 90.7402 17.5825 92.7781 17.5825C94.8161 17.5825 96.2245 16.1027 96.2245 13.9653C96.2245 11.8278 94.8161 10.348 92.7781 10.348C90.7402 10.348 89.3318 11.8278 89.3318 13.9653Z" fill="#32B9CC"/>
<path d="M114.473 10.2572L111.107 12.1155C110.427 10.9559 109.389 10.348 108.03 10.348C106.092 10.348 104.653 11.8278 104.653 13.9653C104.653 16.3537 106.31 17.5825 108.039 17.5825C109.367 17.5825 110.436 16.9832 111.195 15.8236L114.313 18.0022C112.993 19.9796 110.856 21.2192 108.089 21.2192C103.764 21.2192 100.705 18.2228 100.705 13.9674C100.705 9.71196 103.762 6.71347 108.089 6.71347C110.825 6.71347 113.253 8.02234 114.473 10.2593V10.2572Z" fill="#32B9CC"/>
<path d="M126.566 10.467H122.59V20.9574H118.793V10.467H114.817V6.97092H126.564V10.467H126.566Z" fill="#32B9CC"/>
<path d="M140.988 13.9653C140.988 18.1406 137.92 21.217 133.595 21.217C129.271 21.217 126.203 18.1406 126.203 13.9653C126.203 9.78985 129.271 6.7113 133.595 6.7113C137.92 6.7113 140.988 9.78769 140.988 13.9653ZM130.149 13.9653C130.149 16.1027 131.557 17.5825 133.595 17.5825C135.633 17.5825 137.042 16.1027 137.042 13.9653C137.042 11.8278 135.633 10.348 133.595 10.348C131.557 10.348 130.149 11.8278 130.149 13.9653Z" fill="#32B9CC"/>
<path d="M153.681 11.6266C153.681 13.7857 152.432 15.3325 150.063 15.8236L153.869 20.9596H149.393L146.026 15.9945H145.817V20.9596H142.02V6.97307H148.255C151.811 6.97307 153.678 8.81197 153.678 11.6287L153.681 11.6266ZM145.819 10.3783V12.8662H148.216C149.155 12.8662 149.845 12.4768 149.845 11.6266C149.845 10.7764 149.155 10.3783 148.216 10.3783H145.819Z" fill="#32B9CC"/>
</svg>
