<?xml version="1.0" encoding="utf-8"?>
<!-- Generator: Adobe Illustrator 24.2.1, SVG Export Plug-In . SVG Version: 6.00 Build 0)  -->
<svg version="1.1" id="Capa_1" xmlns="http://www.w3.org/2000/svg" xmlns:xlink="http://www.w3.org/1999/xlink" x="0px" y="0px"
	 viewBox="0 0 708 206.6" style="enable-background:new 0 0 708 206.6;" xml:space="preserve">
<style type="text/css">
	.st0{fill:#231F20;}
	.st1{fill-rule:evenodd;clip-rule:evenodd;fill:#EC1C24;}
</style>
<g>
	<path class="st0" d="M708,56c0-0.5-0.1-1-0.4-1.3c-0.3-0.4-0.7-0.6-1.2-0.6h-16.2c-0.8,0-1.5,0.1-2.1,0.3c-0.5,0.2-1.2,0.8-2,1.6
		l-39.4,39.3l7.5-38.5c0.1-0.8,0-1.4-0.5-2c-0.4-0.5-0.9-0.8-1.5-0.8h-12.7c-0.7,0-1.3,0.2-1.9,0.8c-0.5,0.5-0.9,1.2-1,2l-15.9,82.3
		l-14.1-82.5c-0.3-1.7-1.1-2.5-2.6-2.5h-10.1c-1.4,0-2.6,0.8-3.5,2.5l-44.2,78.9l7.5-78.9c0.2-1.7-0.4-2.6-2-2.6h-16
		c-0.6,0-1.1,0.2-1.5,0.6c-0.4,0.4-0.8,1-1.4,1.9l-34.4,67.1l-8.9-67.2c-0.1-0.9-0.2-1.5-0.4-1.9c-0.2-0.4-0.6-0.5-1.2-0.5h-15.2
		c-1.5,0-2.5,0.9-3,2.6l-23.1,79.4L433,56.7c-0.3-1.7-1.1-2.5-2.6-2.5h-10.1c-1.4,0-2.6,0.8-3.5,2.5l-37.7,67.4
		c0-0.1,0.1-0.3,0.1-0.4c0.4-2.1,0.6-4.1,0.6-6.1c0-4.4-1-8.1-3.2-11.1c-2.1-3-4.9-5.5-8.3-7.4c-3.4-1.9-7.8-3.8-13-5.7
		c-3.4-1.1-6.2-2.1-8.3-3.1c-2.1-1-3.8-2.1-5.1-3.5c-1.3-1.3-1.9-3-1.9-4.9c0-0.6,0.1-1.2,0.2-1.9c0.8-4.1,2.7-6.9,6-8.5
		c3.2-1.6,6.8-2.4,10.7-2.4c5.4,0,10.6,2.8,15.6,8.3c0.5,0.6,0.9,1,1.3,1.2c0.4,0.3,0.8,0.4,1.3,0.4c0.5,0,1.1-0.3,1.8-0.8l6.5-6
		c1.1-1.1,1.7-2.1,1.7-3.2c0-0.6-0.2-1.3-0.7-1.9c-2.9-4.4-6.7-7.9-11.5-10.7c-4.8-2.8-9.7-4.2-14.6-4.2c-6.4,0-12.1,1.1-17.2,3.3
		c-5.1,2.2-9.2,5.3-12.5,9.3c-3.3,4-5.4,8.7-6.4,14.2c-0.3,1.3-0.4,2.8-0.4,4.4c0,3.9,1,7.5,3.1,10.9c2.1,3.4,5,6.3,8.6,8.9
		c3.7,2.5,7.9,4.6,12.7,6c4.2,1.3,7.6,2.8,10.4,4.6c2.8,1.8,4.2,4.2,4.2,7.4c0,0.6-0.1,1.2-0.2,1.9c-0.5,2.2-1.5,4.3-3.2,6.3
		c-1.7,2-3.9,3.6-6.5,4.8c-2.6,1.2-5.5,1.8-8.6,1.8c-7.5,0-14-3.5-19.3-10.6c-0.9-1-1.6-1.5-2.3-1.5c-0.5,0-1.1,0.2-1.8,0.8
		l-8.3,7.5c-0.9,0.8-1.3,1.6-1.3,2.6c0,0.7,0.3,1.5,0.9,2.5c2.1,3.1,4.6,5.8,7.7,8.3c3.1,2.5,6.6,4.5,10.5,6c3.9,1.5,7.9,2.3,12,2.3
		c5.9,0,11.5-1.3,17.1-3.8c4.2-1.9,8-4.5,11.3-7.6l-4.1,7.4c-0.3,0.6-0.5,1.1-0.5,1.6c0,0.8,0.5,1.2,1.6,1.2h13.8
		c0.7,0,1.4-0.2,2-0.6c0.5-0.4,1-1,1.5-1.9l8.8-15.8h37l2.8,15.9c0.3,1.6,1.1,2.4,2.5,2.4h10.2h2.3h10.1c0.8,0,1.4-0.2,1.8-0.6
		c0.4-0.4,0.8-1.1,1.1-2l18.5-62.7l8.3,60.9c0.1,1,0.3,1.6,0.6,1.9c0.3,0.3,0.8,0.5,1.4,0.5h10.1c0.6,0,1.1-0.2,1.5-0.5
		c0.4-0.3,0.8-1,1.3-1.9l32.3-60.9l-6,62.7c-0.1,0.9,0,1.5,0.3,1.9c0.3,0.4,0.9,0.6,1.7,0.6h9.4h2.7h11.2c0.7,0,1.4-0.2,1.9-0.6
		c0.5-0.4,1-1,1.5-1.9l8.8-15.8h37l2.8,15.9c0.3,1.6,1.1,2.4,2.5,2.4h12.6c0,0,0,0,0.1,0c0,0,0,0,0.1,0h13c1.5,0,2.5-0.9,2.8-2.7
		l5.1-26.8l13.4-12.5l19.5,39.5c0.4,0.8,0.8,1.4,1.2,1.8c0.4,0.4,0.9,0.6,1.6,0.6h15.1c0.6,0,1-0.2,1.4-0.5c0.4-0.3,0.5-0.7,0.5-1.2
		c0-0.4-0.1-0.9-0.4-1.3L667.6,98l39.7-40.2C707.7,57.3,708,56.7,708,56z M400.9,117.3L421,79.7l5.5,37.6H400.9z M574.5,117.3
		l20.1-37.6l5.5,37.6H574.5z"/>
	<path class="st1" d="M110.8,53.9h35.5c1.8,0,3.5-1.5,3.9-3.2l1.5-7.5c0.4-1.8-0.8-3.2-2.6-3.2h-35.5c-1.8,0-3.5,1.5-3.9,3.2
		l-1.5,7.5C107.9,52.5,109.1,53.9,110.8,53.9 M182.6,0h56.8c3.3,0,5.5,2.7,4.8,6l-12.5,62.8h62.4c3.5,0,5.8,2.9,5.1,6.4l-11.2,56.1
		c-0.7,3.5-4.2,6.4-7.7,6.4h-62.4l-12.5,62.8c-0.7,3.3-3.9,6-7.2,6h-56.8c-3.3,0-5.5-2.7-4.8-6l6.9-34.7h-86c-1.5,0-2.5-1.3-2.2-2.8
		l1.7-8.4c0.3-1.5,1.8-2.8,3.3-2.8h86h55.3h3.3c1.7,0,3.4-1.4,3.7-3.1l1.5-7.8c0.3-1.7-0.8-3.1-2.5-3.1h-3.3h-55.2H2.3
		c-1.6,0-2.6-1.3-2.3-2.8l1.7-8.3c0.3-1.6,1.8-2.8,3.4-2.8h78h103.7c1.9,0,3.8-1.6,4.2-3.5l1.4-7c0.4-1.9-0.9-3.5-2.8-3.5H85.9H50
		c-1.6,0-2.6-1.3-2.3-2.9l1.6-8.3c0.3-1.6,1.9-2.9,3.4-2.9h35.9h67.6c2.1,0,4.1-1.7,4.5-3.7l1.3-6.5c0.4-2.1-0.9-3.7-3-3.7H92.5
		h-1.1l0-0.2c-1.1-0.4-1.7-1.6-1.5-2.9l1.5-7.8c0.3-1.7,2-3.1,3.7-3.1h67.8h54.6c1.9,0,3.7-1.5,4.1-3.4l1.4-7.1
		c0.4-1.9-0.9-3.4-2.8-3.4h-54.6L175.4,6C176.1,2.7,179.3,0,182.6,0z"/>
</g>
</svg>
